<?xml version="1.0" encoding="iso-8859-1"?>
<!-- Generator: Adobe Illustrator 18.0.0, SVG Export Plug-In . SVG Version: 6.00 Build 0)  -->
<!DOCTYPE svg PUBLIC "-//W3C//DTD SVG 1.1//EN" "http://www.w3.org/Graphics/SVG/1.1/DTD/svg11.dtd">
<svg version="1.1" id="Capa_1" xmlns="http://www.w3.org/2000/svg" xmlns:xlink="http://www.w3.org/1999/xlink" x="0px" y="0px"
	 viewBox="0 0 484.382 484.382" style="enable-background:new 0 0 484.382 484.382;" xml:space="preserve">
<g>
	<path d="M477.204,261.525l-11-29.428c-5.362-14.421-19.331-24.131-34.748-24.131c-4.417,0-8.764,0.783-12.921,2.329
		c-2.788,1.037-5.439,2.396-7.9,4.032c-6.076-4.213-13.396-6.627-21.073-6.628c-4.412,0-8.755,0.783-12.911,2.328
		c-3.024,1.124-5.878,2.611-8.497,4.41c-5.968-3.977-13.085-6.247-20.539-6.248c-4.416,0-8.763,0.783-12.92,2.329
		c-0.819,0.305-1.623,0.635-2.412,0.992c-0.2-0.54-0.401-1.081-0.602-1.622l-10.05-27.091c-2.438-6.569-3.739-10.078-4.526-12.108
		l0.025-0.009c-4.716-13.438-18.186-22.467-33.52-22.468h0c-4.601-0.001-9.088,0.801-13.338,2.381
		c-9.284,3.451-16.668,10.312-20.792,19.318c-4.124,9.005-4.493,19.077-1.042,28.361c0,0,18.473,49.687,31.566,84.9
		c-9.128,9.311-14.119,23.686-8.956,38.87c4.74,13.938,12.754,34.246,27.555,49.641c15.442,16.061,35.471,24.205,59.531,24.205
		c16.794,0,35.323-3.853,56.647-11.782c34.98-13.005,57.103-33.156,65.756-59.893C486.62,305.426,485.467,283.749,477.204,261.525z
		 M407.814,365.362c-19.71,7.328-36.034,10.528-49.677,10.528c-40.388,0-57.199-28.082-68.151-60.285
		c-3.534-10.392,3.048-19.75,10.275-22.438l7.011,18.857c0.607,1.633,1.624,1.983,2.359,1.983c0.333,0,0.607-0.072,0.76-0.129
		c0.491-0.184,1.98-1.043,1.098-3.417c-0.851-2.288-44.304-119.158-44.304-119.158c-3.288-8.843,1.215-18.677,10.057-21.964
		c2.043-0.76,4.215-1.127,6.367-1.127c6.393,0.001,12.599,3.246,14.65,9.091c0.016,0.027,21.817,58.808,27.184,73.267
		c0.011,0.031,0.013,0.061,0.024,0.091l1.124,3.021c0.417,1.121,1.479,1.814,2.609,1.814c0.322,0,0.649-0.057,0.968-0.175
		c1.439-0.536,2.173-2.138,1.637-3.577l-0.29-0.781c-3.1-8.773,1.396-18.443,10.151-21.698c1.962-0.729,3.972-1.075,5.95-1.075
		c6.934,0.001,13.455,4.253,16.014,11.134l4.323,11.59c0.41,1.104,1.457,1.785,2.569,1.785c0.317,0,0.64-0.055,0.954-0.172
		c1.417-0.527,2.139-2.105,1.612-3.523l-0.251-0.662c-2.993-8.05,2.74-16.577,10.787-19.568c1.96-0.729,3.967-1.074,5.939-1.074
		c6.927,0.001,13.432,4.261,15.991,11.144l4.395,11.723c0.399,1.074,1.416,1.737,2.497,1.737c0.309,0,0.624-0.054,0.93-0.168
		c1.379-0.513,2.083-2.046,1.569-3.427l-0.341-0.89c-2.722-7.322,3.112-15.881,10.903-18.777c1.962-0.73,3.973-1.075,5.95-1.075
		c6.934,0,13.455,4.254,16.014,11.134l10.987,29.394C468.63,295.854,473.31,341.01,407.814,365.362z"/>
	<path d="M214.108,150.593c-4.186-1.556-8.62-2.346-13.178-2.346c-15.45,0-28.987,9.023-33.686,22.451l0.024,0.009
		c-0.789,2.036-2.092,5.55-4.529,12.116l-10.064,27.131c-0.193,0.519-0.385,1.038-0.578,1.557c-0.789-0.357-1.592-0.688-2.412-0.992
		c-4.156-1.545-8.502-2.329-12.918-2.329c-7.455,0-14.571,2.271-20.541,6.249c-2.62-1.799-5.473-3.287-8.498-4.412
		c-4.153-1.544-8.496-2.327-12.908-2.327c-7.678,0-14.998,2.414-21.075,6.628c-2.461-1.638-5.112-2.996-7.901-4.032
		c-4.155-1.546-8.501-2.329-12.918-2.329c-15.417-0.001-29.387,9.709-34.761,24.163L7.189,261.492
		c-8.275,22.257-9.428,43.935-3.347,62.723c8.653,26.737,30.776,46.889,65.756,59.893c21.324,7.929,39.853,11.782,56.647,11.782
		c24.063,0,44.093-8.143,59.534-24.204c14.797-15.392,22.812-35.702,27.552-49.642c5.163-15.184,0.172-29.559-8.956-38.87
		c13.092-35.212,31.566-84.9,31.566-84.9c3.452-9.284,3.082-19.356-1.041-28.361C230.776,160.906,223.392,154.046,214.108,150.593z
		 M217.196,191.304c0,0-43.453,116.87-44.304,119.158c-0.882,2.374,0.607,3.233,1.098,3.417c0.153,0.057,0.428,0.129,0.76,0.129
		c0.735,0,1.753-0.351,2.359-1.983l7.011-18.857c7.227,2.688,13.809,12.046,10.275,22.438
		c-10.954,32.205-27.756,60.285-68.151,60.285c-13.641,0-29.972-3.202-49.677-10.528c-65.496-24.352-60.816-69.508-50.645-96.867
		L36.91,239.1c2.559-6.881,9.08-11.135,16.014-11.134c1.977,0,3.988,0.346,5.95,1.075c7.791,2.896,13.625,11.455,10.903,18.777
		l-0.341,0.89c-0.514,1.381,0.189,2.914,1.569,3.427c0.307,0.114,0.621,0.168,0.93,0.168c1.082,0,2.099-0.663,2.498-1.737
		l4.396-11.723c2.559-6.883,9.063-11.144,15.991-11.144c1.972,0,3.979,0.346,5.939,1.074c8.047,2.991,13.78,11.519,10.787,19.568
		l-0.251,0.662c-0.527,1.418,0.194,2.995,1.612,3.523c0.314,0.117,0.637,0.172,0.954,0.172c1.112,0,2.159-0.682,2.569-1.785
		l4.323-11.59c2.559-6.881,9.08-11.134,16.014-11.134c1.977,0,3.988,0.346,5.95,1.075c8.755,3.255,13.25,12.925,10.151,21.698
		l-0.29,0.781c-0.536,1.439,0.198,3.041,1.637,3.577c0.319,0.118,0.646,0.175,0.968,0.175c1.129,0,2.192-0.692,2.609-1.814
		l1.124-3.021c0.011-0.029,0.013-0.059,0.024-0.091c5.367-14.459,27.167-73.239,27.184-73.267c1.998-5.709,8.332-9.057,14.808-9.057
		c2.102,0,4.22,0.354,6.208,1.093C215.981,172.628,220.483,182.462,217.196,191.304z"/>
	<path d="M315.108,125.463h22.365c-3.809,3.912-3.782,10.169,0.091,14.042c1.953,1.952,4.512,2.929,7.071,2.929
		c2.559,0,5.119-0.977,7.071-2.929l16.971-16.971c3.905-3.905,3.905-10.237,0-14.143l-16.971-16.971
		c-3.905-3.904-10.237-3.904-14.143,0c-3.873,3.873-3.9,10.13-0.091,14.042h-22.365c-5.523,0-10,4.478-10,10
		S309.585,125.463,315.108,125.463z"/>
	<path d="M132.675,139.505c1.953,1.952,4.512,2.929,7.071,2.929c2.559,0,5.119-0.977,7.071-2.929
		c3.873-3.873,3.9-10.13,0.091-14.042h22.365c5.523,0,10-4.478,10-10s-4.477-10-10-10h-22.365
		c3.809-3.912,3.782-10.169-0.091-14.042c-3.905-3.904-10.237-3.904-14.143,0l-16.971,16.971c-3.905,3.905-3.905,10.237,0,14.143
		L132.675,139.505z"/>
</g>
<g>
</g>
<g>
</g>
<g>
</g>
<g>
</g>
<g>
</g>
<g>
</g>
<g>
</g>
<g>
</g>
<g>
</g>
<g>
</g>
<g>
</g>
<g>
</g>
<g>
</g>
<g>
</g>
<g>
</g>
</svg>
