<svg height="512" viewBox="0 0 56 60" width="512" xmlns="http://www.w3.org/2000/svg"><g id="Page-1" fill="none" fill-rule="evenodd"><g id="052---Scroll-Zoom" fill="rgb(0,0,0)" fill-rule="nonzero"><path id="Shape" d="m9 2c-4.96827817.00551113-8.99448887 4.03172183-9 9v38c0 4.9705627 4.02943725 9 9 9 4.9705627 0 9-4.0294373 9-9v-38c-.0055111-4.96827817-4.0317218-8.99448887-9-9zm5.707 47.707c-1.5569845 1.4379909-3.5879206 2.2539952-5.707 2.293-2.11907939-.0390048-4.15001547-.8550091-5.707-2.293-.37956502-.3918367-.37504512-1.0155809.01015854-1.4018758s1.0089326-.3925793 1.40184146-.0141242c1.18429524 1.0600141 2.70619535 1.665585 4.295 1.709 1.5897733-.0339369 3.1139957-.6400044 4.293-1.707.3923789-.3789722 1.0160848-.3735524 1.4018186.0121814s.3911536 1.0094397.0121814 1.4018186zm-11.6-7.154c.24481899-.4934846.8426346-.6960354 1.337-.453 1.44019022.611502 2.99146793.9179441 4.556.9 1.5640429.0232147 3.1154208-.2834491 4.553-.9.4942949-.2468713 1.0951287-.0462949 1.342.448s.0462949 1.0951287-.448 1.342c-1.7156153.7545802-3.5729148 1.1330642-5.447 1.11-1.87335784.0262139-3.73062687-.3488542-5.447-1.1-.23875764-.1184521-.42035072-.327315-.50446464-.58022s-.06378824-.5289243.05646464-.76678zm10.893-4.553h-10c-.55228475 0-1-.4477153-1-1s.44771525-1 1-1h10c.5522847 0 1 .4477153 1 1s-.4477153 1-1 1zm0-7h-10c-.55228475 0-1-.4477153-1-1s.44771525-1 1-1h10c.5522847 0 1 .4477153 1 1s-.4477153 1-1 1zm0-7h-10c-.55228475 0-1-.4477153-1-1s.44771525-1 1-1h10c.5522847 0 1 .4477153 1 1s-.4477153 1-1 1zm-10.447-7.895c1.71599434-.7528629 3.57327857-1.1296389 5.447-1.105 1.8737214-.0246389 3.7310057.3521371 5.447 1.105.4942949.2468713.6948713.8477051.448 1.342s-.8477051.6948713-1.342.448c-1.4395339-.6096868-2.9897987-.9144281-4.553-.895-1.56368535-.0247933-3.11504896.2801639-4.553.895-.49429485.2468713-1.09512872.0462949-1.342-.448s-.04629485-1.0951287.448-1.342zm11.154-4.4c-.3904999.3903819-1.0235001.3903819-1.414 0-1.1843474-1.0581231-2.7054002-1.6622216-4.293-1.705-1.58977327.0339369-3.11399568.6400044-4.293 1.707-.39237889.3789722-1.01608478.3735524-1.40181858-.0121814-.38573379-.3857338-.39115363-1.0094397-.01218142-1.4018186 1.55698453-1.43799095 3.58792061-2.25399523 5.707-2.293 2.1190794.03900477 4.1500155.85500905 5.707 2.293.3903819.3904999.3903819 1.0235001 0 1.414z"/><path id="Shape" d="m45.62 42.824-1.12-1.712c-.265.2-.528.405-.809.589s-.566.357-.855.519l1.117 1.7z"/><path id="Shape" d="m47.75 32.434c.6456815-3.1164275.0269155-6.3617102-1.7201753-9.0219166-1.7470908-2.6602065-4.4793926-4.5174244-7.5958247-5.1630834-.808755-.1662337-1.6323379-.2496642-2.458-.249-6.307536.0123236-11.5288904 4.9057049-11.9498058 11.199193-.4209153 6.2934881 4.1023015 11.8385969 10.3520194 12.6907634 6.249718.8521664 12.0923934-3.2795241 13.3717864-9.4559564zm-6.26 5.923c-3.3803643 2.2200473-7.7651357 2.1854731-11.1100714-.0876035-3.3449358-2.2730767-4.9914556-6.3371127-4.1719286-10.2973965.1121138-.5409629.6415371-.8886138 1.1825-.7765s.8886138.6415371.7765 1.1825c-.7300277 3.5443314 1.0122721 7.1369718 4.2474643 8.7583158 3.2351923 1.6213441 7.156089.8668628 9.5585555-1.8393116 2.4024664-2.7061745 2.6870817-6.6888454.693849-9.7091516-1.9932326-3.0203061-5.7669969-4.3246741-9.1998688-3.1798526-.5246705.1753504-1.0921495-.1078295-1.2675-.6325-.1753504-.5246705.1078295-1.0921496.6325-1.2675 4.7695643-1.6032793 9.98758.5871425 12.1836403 5.114456 2.1960602 4.5273135.6860972 9.9812705-3.5256403 12.734544z"/><path id="Shape" d="m48.938 44.233c-.1446848-.2220843-.3723057-.376953-.632-.43-.0657869-.0138556-.1327743-.0212242-.2-.022-.1942372.0003031-.384103.0576801-.546.165l-3.343 2.2c-.4608183.3034348-.5888013.9227652-.286 1.384l.549.836 5.015-3.293z"/><path id="Shape" d="m54.978 53.427-5.015 3.294.549.837c.1457355.2215895.3735287.3762095.633267.429845s.530145.0018929.751733-.143845l3.343-2.2c.4611653-.3031108.5896091-.9225054.287-1.384z"/><path id="Rectangle-path" d="m47.823 51.567h6v2h-6z" transform="matrix(.836 -.549 .549 .836 -20.516 36.537)"/><path id="Rectangle-path" d="m45.627 48.225h6v2h-6z" transform="matrix(.836 -.549 .549 .836 -19.041 34.775)"/><path id="Shape" d="m33.707 4.707 2.293-2.293 2.293 2.293c.3923789.37897221 1.0160848.37355237 1.4018186-.01218142.3857338-.3857338.3911536-1.00943969.0121814-1.40181858l-3-3c-.3904999-.39038194-1.0235001-.39038194-1.414 0l-3 3c-.3789722.39237889-.3735524 1.01608478.0121814 1.40181858.3857338.38573379 1.0094397.39115363 1.4018186.01218142z"/><path id="Shape" d="m32.293 9.707c.3904999.3903819 1.0235001.3903819 1.414 0l2.293-2.293 2.293 2.293c.3923789.3789722 1.0160848.3735524 1.4018186-.01218142.3857338-.3857338.3911536-1.00943969.0121814-1.40181858l-3-3c-.3904999-.39038194-1.0235001-.39038194-1.414 0l-3 3c-.3903819.39049985-.3903819 1.02350015 0 1.414z"/><path id="Shape" d="m32.293 14.707c.3904999.3903819 1.0235001.3903819 1.414 0l2.293-2.293 2.293 2.293c.3923789.3789722 1.0160848.3735524 1.4018186-.0121814s.3911536-1.0094397.0121814-1.4018186l-3-3c-.3904999-.39038194-1.0235001-.39038194-1.414 0l-3 3c-.3903819.3904999-.3903819 1.0235001 0 1.414z"/><path id="Shape" d="m38.293 55.293-2.293 2.293-2.293-2.293c-.3923789-.3789722-1.0160848-.3735524-1.4018186.0121814s-.3911536 1.0094397-.0121814 1.4018186l3 3c.3904999.3903819 1.0235001.3903819 1.414 0l3-3c.3789722-.3923789.3735524-1.0160848-.0121814-1.4018186s-1.0094397-.3911536-1.4018186-.0121814z"/><path id="Shape" d="m38.293 50.293-2.293 2.293-2.293-2.293c-.3923789-.3789722-1.0160848-.3735524-1.4018186.0121814s-.3911536 1.0094397-.0121814 1.4018186l3 3c.3904999.3903819 1.0235001.3903819 1.414 0l3-3c.3789722-.3923789.3735524-1.0160848-.0121814-1.4018186s-1.0094397-.3911536-1.4018186-.0121814z"/><path id="Shape" d="m38.293 45.293-2.293 2.293-2.293-2.293c-.3923789-.3789722-1.0160848-.3735524-1.4018186.0121814s-.3911536 1.0094397-.0121814 1.4018186l3 3c.3904999.3903819 1.0235001.3903819 1.414 0l3-3c.3789722-.3923789.3735524-1.0160848-.0121814-1.4018186s-1.0094397-.3911536-1.4018186-.0121814z"/></g></g></svg>