<svg height="512" viewBox="0 0 60 60" width="512" xmlns="http://www.w3.org/2000/svg"><g id="Page-1" fill="none" fill-rule="evenodd"><g id="052---Scroll-Zoom" fill="rgb(0,0,0)" fill-rule="nonzero"><path id="Shape" d="m11 0c-6.07216255.0071635-10.9928365 4.92783745-11 11v38c0 6.0751322 4.92486775 11 11 11 6.0751322 0 11-4.9248678 11-11v-38c-.0071635-6.07216255-4.9278374-10.9928365-11-11zm9 49c0 4.9705627-4.0294373 9-9 9-4.97056275 0-9-4.0294373-9-9v-38c0-4.97056275 4.02943725-9 9-9 4.9705627 0 9 4.02943725 9 9z"/><path id="Shape" d="m11 8c-2.11907939.03900477-4.15001547.85500905-5.707 2.293-.37897221.3923789-.37355237 1.0160848.01218142 1.4018186.3857338.3857338 1.00943969.3911536 1.40181858.0121814 1.17900432-1.0669956 2.70322673-1.6730631 4.293-1.707 1.5878554.0433315 3.1089389.6481509 4.293 1.707.3923789.3789722 1.0160848.3735524 1.4018186-.0121814s.3911536-1.0094397.0121814-1.4018186c-1.5569845-1.43799095-3.5879206-2.25399523-5.707-2.293z"/><path id="Shape" d="m6.447 17.9c1.43757918-.6165509 2.98895715-.9232147 4.553-.9 1.5632013-.0194281 3.1134661.2853132 4.553.895.3197527.1596977.7004141.1366785.9985927-.0603866.2981787-.1970651.4685741-.5382372.4470001-.895-.0215741-.3567629-.2318401-.6749157-.5515928-.8346134-1.7159943-.7528629-3.5732786-1.1296389-5.447-1.105-1.87372143-.0246389-3.73100566.3521371-5.447 1.105-.49429485.2468713-.69487128.8477051-.448 1.342s.84770515.6948713 1.342.448z"/><path id="Shape" d="m16 22h-10c-.55228475 0-1 .4477153-1 1s.44771525 1 1 1h10c.5522847 0 1-.4477153 1-1s-.4477153-1-1-1z"/><path id="Shape" d="m15.293 48.293c-1.1790043 1.0669956-2.7032267 1.6730631-4.293 1.707-1.58880465-.043415-3.11070476-.6489859-4.295-1.709-.39290886-.3784551-1.0166378-.3721707-1.40184146.0141242s-.38972356 1.0100391-.01015854 1.4018758c1.55698453 1.4379909 3.58792061 2.2539952 5.707 2.293 2.1190794-.0390048 4.1500155-.8550091 5.707-2.293.3789722-.3923789.3735524-1.0160848-.0121814-1.4018186s-1.0094397-.3911536-1.4018186-.0121814z"/><path id="Shape" d="m11 45c1.8733578.0262139 3.7306269-.3488542 5.447-1.1.3197527-.1596977.5300187-.4778505.5515928-.8346134.0215741-.3567628-.1488214-.6979349-.447-.895-.2981787-.1970651-.6788401-.2200844-.9985928-.0603866-1.4383226.6131215-2.989672.9163723-4.553.89-1.56453207.0179441-3.11580978-.288498-4.556-.9-.49705627-.2460429-1.09945714-.0425563-1.3455.4545s-.04255627 1.0994571.4545 1.3455c1.71637313.7511458 3.57364216 1.1262139 5.447 1.1z"/><path id="Shape" d="m16 36h-10c-.55228475 0-1 .4477153-1 1s.44771525 1 1 1h10c.5522847 0 1-.4477153 1-1s-.4477153-1-1-1z"/><path id="Shape" d="m16 29h-10c-.55228475 0-1 .4477153-1 1s.44771525 1 1 1h10c.5522847 0 1-.4477153 1-1s-.4477153-1-1-1z"/><path id="Shape" d="m47.792 32.028c.7261748-3.5030968-.4743783-7.1272609-3.148334-9.5040188-2.6739558-2.3767578-6.4139096-3.1439859-9.807666-2.0119812-.5246705.1753504-.8078504.7428295-.6325 1.2675.1753505.5246705.7428295.8078504 1.2675.6325 3.4360113-1.1477942 7.2144876.1566029 9.2106412 3.1796768s1.7117229 7.0102326-.6933454 9.7193379c-2.4050684 2.7091052-6.3304431 3.463935-9.5687297 1.8400185-3.2382866-1.6239166-4.9811736-5.2212323-4.2485661-8.7690332.0725249-.3499417-.0471509-.7119927-.3139468-.9497719-.2667959-.2377793-.6401792-.3151624-.9795-.203-.3393209.1121624-.5930283.3968302-.6655532.7467719-1.0812111 5.390958 2.3926547 10.643555 7.7767092 11.7586349s10.6583861-2.3256967 11.8072908-7.7026349z"/><path id="Shape" d="m55.905 48.151-3.295-5.015c-.6922737-1.0655778-1.9865861-1.5715583-3.218-1.258l-1.38-2.1c4.4646318-4.5757794 5.2606535-11.5954696 1.9339839-17.0547702s-9.930142-7.9700483-16.0435432-6.1000164c-6.1134013 1.8700319-10.1822467 7.6453413-9.8855109 14.0314701.2967357 6.3861289 4.8836003 11.7592448 11.1440702 13.0543165.9432493.1976615 1.9042645.2981861 2.868.3 1.7000105-.0025375 3.3850513-.3177835 4.971-.93l1.375 2.093c-.7776186 1.0051784-.8279026 2.3942261-.125 3.453l1.1 1.672 2.2 3.343 3.293 5.014c.4365942.6659826 1.1200617 1.1310553 1.8998078 1.2927443s1.5917848.0067261 2.2571922-.4307443l3.343-2.2c1.384732-.9094198 1.7701919-2.7691184.861-4.154zm-6.138 5.228 5.015-3.295 1.1 1.672-5.017 3.294zm-2.2-3.344 5.015-3.294 1.1 1.672-5.015 3.294zm2.739-6.235c.2596943.053047.4873152.2079157.632.43l.55.837-5.015 3.293-.549-.836c-.3028013-.4612348-.1748183-1.0805652.286-1.384l3.343-2.2c.161897-.1073199.3517628-.1646969.546-.165.069669.0012962.1390256.0096727.207.025zm-14.74-2.052c-6.0154735-1.2524819-10.1129879-6.846536-9.4926187-12.9596182.6203693-6.1130822 5.7581666-10.7699162 11.9026187-10.7883818.8257986.0006518 1.6493829.0854227 2.458.253 6.4327917 1.3967717 10.5395218 7.7150129 9.2042724 14.1608557-1.3352495 6.4458428-7.6139669 10.6127496-14.0722724 9.3391443zm10.12-.05c.281-.184.544-.388.809-.589l1.125 1.712-1.672 1.1-1.117-1.7c.289-.163.575-.336.855-.521zm11.554 13.949-3.343 2.2c-.221588.1457379-.4919947.1974805-.751733.143845s-.4875315-.2082555-.633267-.429845l-.549-.837 5.015-3.294.549.836c.3005676.4608956.1723158 1.0780237-.287 1.381z"/><path id="Shape" d="m35.707 4.707 2.293-2.293 2.293 2.293c.3923789.37897221 1.0160848.37355237 1.4018186-.01218142.3857338-.3857338.3911536-1.00943969.0121814-1.40181858l-3-3c-.3904999-.39038194-1.0235001-.39038194-1.414 0l-3 3c-.3789722.39237889-.3735524 1.01608478.0121814 1.40181858.3857338.38573379 1.0094397.39115363 1.4018186.01218142z"/><path id="Shape" d="m34.293 9.707c.3904999.3903819 1.0235001.3903819 1.414 0l2.293-2.293 2.293 2.293c.3923789.3789722 1.0160848.3735524 1.4018186-.01218142.3857338-.3857338.3911536-1.00943969.0121814-1.40181858l-3-3c-.3904999-.39038194-1.0235001-.39038194-1.414 0l-3 3c-.3903819.39049985-.3903819 1.02350015 0 1.414z"/><path id="Shape" d="m34.293 14.707c.3904999.3903819 1.0235001.3903819 1.414 0l2.293-2.293 2.293 2.293c.3923789.3789722 1.0160848.3735524 1.4018186-.0121814s.3911536-1.0094397.0121814-1.4018186l-3-3c-.3904999-.39038194-1.0235001-.39038194-1.414 0l-3 3c-.3903819.3904999-.3903819 1.0235001 0 1.414z"/><path id="Shape" d="m40.293 55.293-2.293 2.293-2.293-2.293c-.3923789-.3789722-1.0160848-.3735524-1.4018186.0121814s-.3911536 1.0094397-.0121814 1.4018186l3 3c.3904999.3903819 1.0235001.3903819 1.414 0l3-3c.3789722-.3923789.3735524-1.0160848-.0121814-1.4018186s-1.0094397-.3911536-1.4018186-.0121814z"/><path id="Shape" d="m40.293 50.293-2.293 2.293-2.293-2.293c-.3923789-.3789722-1.0160848-.3735524-1.4018186.0121814s-.3911536 1.0094397-.0121814 1.4018186l3 3c.3904999.3903819 1.0235001.3903819 1.414 0l3-3c.3789722-.3923789.3735524-1.0160848-.0121814-1.4018186s-1.0094397-.3911536-1.4018186-.0121814z"/><path id="Shape" d="m40.293 45.293-2.293 2.293-2.293-2.293c-.3923789-.3789722-1.0160848-.3735524-1.4018186.0121814s-.3911536 1.0094397-.0121814 1.4018186l3 3c.3904999.3903819 1.0235001.3903819 1.414 0l3-3c.3789722-.3923789.3735524-1.0160848-.0121814-1.4018186s-1.0094397-.3911536-1.4018186-.0121814z"/></g></g></svg>