<?xml version="1.0" encoding="iso-8859-1"?>
<!-- Generator: Adobe Illustrator 19.0.0, SVG Export Plug-In . SVG Version: 6.00 Build 0)  -->
<svg version="1.1" id="Capa_1" xmlns="http://www.w3.org/2000/svg" xmlns:xlink="http://www.w3.org/1999/xlink" x="0px" y="0px"
	 viewBox="0 0 426.667 426.667" style="enable-background:new 0 0 426.667 426.667;" xml:space="preserve">
<g>
	<rect y="405.084" style="fill:#DC8744;" width="426.667" height="18.705"/>
	<rect x="287.488" y="2.878" style="fill:#DC8744;" width="19.985" height="234.88"/>
	<rect x="124.971" y="58.549" style="fill:#DC8744;" width="19.985" height="179.191"/>
	<rect x="206.251" y="30.714" style="fill:#DC8744;" width="19.985" height="207.019"/>
</g>
<rect x="92.373" y="227.91" style="fill:#FCD462;" width="247.723" height="177.626"/>
<g>
	<rect x="108.787" y="195.078" style="fill:#64798A;" width="52.147" height="32.828"/>
	<rect x="190.165" y="195.078" style="fill:#64798A;" width="52.147" height="32.828"/>
	<rect x="271.403" y="195.078" style="fill:#64798A;" width="52.147" height="32.828"/>
</g>
<polygon style="fill:#44C4A1;" points="283.966,405.099 384.613,405.099 384.613,243.293 283.966,298.858 "/>
<rect x="298.108" y="311.772" style="fill:#3A556A;" width="31.855" height="27.614"/>
<polygon style="fill:#64798A;" points="298.109,339.373 298.109,311.76 329.964,311.76 "/>
<rect x="298.108" y="347.612" style="fill:#3A556A;" width="31.855" height="27.614"/>
<polygon style="fill:#64798A;" points="298.109,375.243 298.109,347.631 329.964,347.631 "/>
<rect x="338.603" y="311.772" style="fill:#3A556A;" width="31.855" height="27.614"/>
<polygon style="fill:#64798A;" points="338.615,339.373 338.615,311.76 370.47,311.76 "/>
<rect x="338.603" y="347.612" style="fill:#3A556A;" width="31.855" height="27.614"/>
<polygon style="fill:#64798A;" points="338.615,375.243 338.615,347.631 370.47,347.631 "/>
<polygon style="fill:#44C4A1;" points="163.723,405.099 264.37,405.099 264.37,243.293 163.723,298.858 "/>
<rect x="177.865" y="311.772" style="fill:#3A556A;" width="31.855" height="27.614"/>
<polygon style="fill:#64798A;" points="177.865,339.373 177.865,311.76 209.721,311.76 "/>
<rect x="177.865" y="347.612" style="fill:#3A556A;" width="31.855" height="27.614"/>
<polygon style="fill:#64798A;" points="177.865,375.243 177.865,347.631 209.721,347.631 "/>
<rect x="218.368" y="311.772" style="fill:#3A556A;" width="31.855" height="27.614"/>
<polygon style="fill:#64798A;" points="218.372,339.373 218.372,311.76 250.227,311.76 "/>
<rect x="218.368" y="347.612" style="fill:#3A556A;" width="31.855" height="27.614"/>
<polygon style="fill:#64798A;" points="218.372,375.243 218.372,347.631 250.227,347.631 "/>
<polygon style="fill:#44C4A1;" points="42.053,405.099 142.701,405.099 142.701,243.293 42.053,298.858 "/>
<rect x="56.192" y="311.772" style="fill:#3A556A;" width="31.855" height="27.614"/>
<polygon style="fill:#64798A;" points="56.196,339.373 56.196,311.76 88.051,311.76 "/>
<rect x="56.192" y="347.612" style="fill:#3A556A;" width="31.855" height="27.614"/>
<polygon style="fill:#64798A;" points="56.196,375.243 56.196,347.631 88.051,347.631 "/>
<rect x="96.704" y="311.772" style="fill:#3A556A;" width="31.855" height="27.614"/>
<polygon style="fill:#64798A;" points="96.703,339.373 96.703,311.76 128.558,311.76 "/>
<rect x="96.704" y="347.612" style="fill:#3A556A;" width="31.855" height="27.614"/>
<polygon style="fill:#64798A;" points="96.703,375.243 96.703,347.631 128.558,347.631 "/>
<g>
</g>
<g>
</g>
<g>
</g>
<g>
</g>
<g>
</g>
<g>
</g>
<g>
</g>
<g>
</g>
<g>
</g>
<g>
</g>
<g>
</g>
<g>
</g>
<g>
</g>
<g>
</g>
<g>
</g>
</svg>
