<?xml version="1.0" encoding="iso-8859-1"?>
<!-- Generator: Adobe Illustrator 19.0.0, SVG Export Plug-In . SVG Version: 6.00 Build 0)  -->
<svg version="1.1" id="Capa_1" xmlns="http://www.w3.org/2000/svg" xmlns:xlink="http://www.w3.org/1999/xlink" x="0px" y="0px"
	 viewBox="0 0 512 512" style="enable-background:new 0 0 512 512;" xml:space="preserve">
<circle style="fill:#FFECB3;" cx="256" cy="256" r="256"/>
<path style="fill:#FFD863;" d="M512,256c0-7.596-0.351-15.109-0.999-22.537L372.038,94.5l-20.251,141.92l-94.05-94.05l-0.999,18.186
	l-44.393-44.393L66.917,200.126L233.85,367.06L100.667,405l101.259,101.259C219.359,510.008,237.446,512,256,512
	C397.385,512,512,397.385,512,256z"/>
<path style="fill:#FF6838;" d="M271.04,226.334c0-4.758-0.473-9.396-1.17-13.96l21.213-12.247l-33.345-57.756l-21.159,12.216
	c-7.254-5.829-15.418-10.537-24.233-13.969v-24.455h-66.691v24.455c-8.814,3.432-16.979,8.14-24.233,13.969l-21.159-12.216
	l-33.345,57.756l21.213,12.247c-0.696,4.564-1.17,9.202-1.17,13.96c0,4.758,0.473,9.396,1.17,13.96l-21.213,12.247l33.345,57.756
	l21.159-12.216c7.254,5.829,15.418,10.536,24.233,13.968v24.455h66.691v-24.455c8.814-3.432,16.979-8.139,24.233-13.968
	l21.159,12.216l33.345-57.756l-21.213-12.247C270.566,235.729,271.04,231.092,271.04,226.334z M178.999,266.499
	c-22.182,0-40.164-17.982-40.164-40.164s17.982-40.164,40.164-40.164s40.164,17.982,40.164,40.164S201.181,266.5,178.999,266.499z"
	/>
<path style="fill:#AE4E32;" d="M271.04,226.333c0-4.758-0.473-9.396-1.17-13.96l21.213-12.247l-33.345-57.756l-21.159,12.216
	c-7.254-5.829-15.418-10.537-24.233-13.969v-24.455h-33.774v70.018c0.143-0.002,0.284-0.011,0.428-0.011
	c22.182,0,40.164,17.982,40.164,40.164S201.182,266.498,179,266.497c-0.143,0-0.285-0.01-0.428-0.011v70.016h33.774v-24.455
	c8.814-3.432,16.979-8.139,24.233-13.968l21.159,12.216l33.345-57.756l-21.213-12.247
	C270.566,235.729,271.04,231.092,271.04,226.333z"/>
<polygon style="fill:#0074A3;" points="393.422,265.5 305,265.5 326.384,94.5 372.038,94.5 "/>
<rect x="100.67" y="226.33" style="fill:#005C83;" width="310.67" height="178.67"/>
<rect x="255.95" y="226.33" style="fill:#00263F;" width="155.38" height="178.67"/>
<g>
	<rect x="132.5" y="262" style="fill:#008CC3;" width="46.5" height="46.5"/>
	<rect x="201" y="262" style="fill:#008CC3;" width="46.5" height="46.5"/>
</g>
<g>
	<rect x="267" y="262" style="fill:#0074A3;" width="46.5" height="46.5"/>
	<rect x="335.5" y="262" style="fill:#0074A3;" width="46.5" height="46.5"/>
</g>
<g>
</g>
<g>
</g>
<g>
</g>
<g>
</g>
<g>
</g>
<g>
</g>
<g>
</g>
<g>
</g>
<g>
</g>
<g>
</g>
<g>
</g>
<g>
</g>
<g>
</g>
<g>
</g>
<g>
</g>
</svg>
